<svg data-v-5f19e91b="" xmlns="http://www.w3.org/2000/svg" width="335" height="55" viewBox="0 0 335 55"><!----> <!----> <!----> <g data-v-5f19e91b="" id="e4983383-670c-0d64-b6a5-349d8144d33a" fill="white" transform="matrix(5.559931380343148,0,0,5.559931380343148,95.07776709485579,-6.79614152270004)"><path d="M7.15 0.81L6.36 1.74L6.36 1.74Q6.24 1.74 6.19 1.72L6.19 1.72L6.16 1.76L6.16 1.76Q6.06 1.78 5.97 1.79L5.97 1.79L5.97 1.79Q5.88 1.81 5.77 1.83L5.77 1.83L5.73 1.83L5.73 1.83Q5.35 1.90 4.90 2.03L4.90 2.03L4.90 2.03Q4.45 2.16 3.99 2.34L3.99 2.34L3.99 2.34Q3.44 2.70 2.90 3.21L2.90 3.21L2.90 3.21Q2.72 3.70 2.60 4.21L2.60 4.21L2.60 4.21Q2.49 4.72 2.58 5.21L2.58 5.21L2.58 5.21Q2.97 5.22 3.40 5.11L3.40 5.11L3.40 5.11Q3.84 5.00 4.28 4.87L4.28 4.87L4.28 4.87Q4.72 4.75 5.16 4.65L5.16 4.65L5.16 4.65Q5.60 4.55 5.99 4.59L5.99 4.59L5.99 4.59Q6.10 4.62 6.24 4.66L6.24 4.66L6.24 4.66Q6.38 4.69 6.52 4.72L6.52 4.72L6.52 4.72Q6.90 4.68 7.17 4.70L7.17 4.70L7.17 4.70Q7.43 4.72 7.60 4.87L7.60 4.87L7.60 4.87Q7.76 4.90 7.80 4.96L7.80 4.96L7.80 4.96Q7.97 5.24 7.99 5.50L7.99 5.50L7.99 5.50Q8.01 5.75 7.92 5.99L7.92 5.99L7.92 5.99Q7.92 6.34 7.77 6.69L7.77 6.69L7.77 6.69Q7.62 7.04 7.38 7.36L7.38 7.36L7.38 7.36Q7.20 7.70 6.92 8.02L6.92 8.02L6.92 8.02Q6.65 8.33 6.36 8.62L6.36 8.62L6.36 8.62Q6.06 8.90 5.77 9.16L5.77 9.16L5.77 9.16Q5.47 9.42 5.25 9.65L5.25 9.65L5.25 9.65Q4.80 10.14 4.43 10.38L4.43 10.38L4.43 10.38Q4.06 10.63 3.64 10.70L3.64 10.70L3.64 10.70Q3.26 10.85 2.87 10.93L2.87 10.93L2.87 10.93Q2.84 10.93 2.81 10.94L2.81 10.94L2.81 10.94Q2.77 10.95 2.74 10.95L2.74 10.95L2.74 10.95Q2.63 11.03 2.59 11.07L2.59 11.07L2.59 11.07Q2.59 11.05 2.60 11.03L2.60 11.03L2.60 11.03Q2.62 11.00 2.62 10.98L2.62 10.98L2.62 10.98Q2.34 11.02 2.11 11.02L2.11 11.02L2.11 11.02Q1.89 11.02 1.67 10.99L1.67 10.99L1.67 10.99Q1.46 10.96 1.23 10.89L1.23 10.89L1.23 10.89Q1.01 10.82 0.71 10.74L0.71 10.74L0.71 10.74Q0.56 10.68 0.41 10.63L0.41 10.63L0.41 10.63Q0.27 10.57 0.17 10.43L0.17 10.43L0.17 10.43Q0.28 10.32 0.39 10.22L0.39 10.22L0.39 10.22Q0.50 10.12 0.62 10.01L0.62 10.01L0.62 10.01Q0.57 9.88 0.49 9.76L0.49 9.76L0.49 9.76Q0.50 9.63 0.59 9.48L0.59 9.48L0.59 9.48Q0.69 9.32 0.82 9.18L0.82 9.18L0.82 9.18Q0.95 9.04 1.11 8.95L1.11 8.95L1.11 8.95Q1.26 8.86 1.40 8.89L1.40 8.89L1.41 8.88L1.41 8.88Q1.41 8.90 1.44 8.93L1.44 8.93L1.44 8.93Q1.53 9.04 1.61 9.04L1.61 9.04L1.51 9.16L1.51 9.16Q1.53 9.24 1.58 9.31L1.58 9.31L1.58 9.31Q1.64 9.42 1.81 9.52L1.81 9.52L1.83 9.49L1.83 9.49Q2.38 9.60 2.85 9.62L2.85 9.62L2.85 9.62Q3.32 9.63 3.77 9.56L3.77 9.56L3.77 9.56Q3.99 9.35 4.20 9.13L4.20 9.13L4.20 9.13Q4.41 8.92 4.65 8.69L4.65 8.69L4.66 8.68L4.66 8.68Q4.69 8.65 4.73 8.62L4.73 8.62L4.73 8.62Q4.76 8.58 4.80 8.55L4.80 8.55L4.87 8.48L4.87 8.48Q4.98 8.37 5.10 8.26L5.10 8.26L5.10 8.26Q5.22 8.15 5.35 8.04L5.35 8.04L5.35 8.04Q5.39 7.99 5.44 7.96L5.44 7.96L5.44 7.96Q5.49 7.92 5.53 7.88L5.53 7.88L5.53 7.88Q5.66 7.42 5.65 6.96L5.65 6.96L5.65 6.96Q5.64 6.50 5.46 5.94L5.46 5.94L5.42 5.94L5.39 5.96L5.39 5.95L5.39 5.95Q4.89 6.05 4.40 6.20L4.40 6.20L4.40 6.20Q3.91 6.36 3.41 6.49L3.41 6.49L3.41 6.49Q2.91 6.62 2.42 6.69L2.42 6.69L2.42 6.69Q1.93 6.76 1.44 6.68L1.44 6.68L1.44 6.68Q1.29 6.65 1.15 6.58L1.15 6.58L1.15 6.58Q1.01 6.51 0.87 6.44L0.87 6.44L0.87 6.44Q0.70 6.37 0.64 6.21L0.64 6.21L0.64 6.21Q0.57 6.05 0.60 5.85L0.60 5.85L0.60 5.85Q0.55 5.67 0.58 5.46L0.58 5.46L0.58 5.46Q0.62 5.25 0.70 5.01L0.70 5.01L0.70 5.01Q0.71 4.80 0.73 4.59L0.73 4.59L0.73 4.59Q0.76 4.38 0.79 4.19L0.79 4.19L0.79 4.19Q0.83 4.00 0.85 3.87L0.85 3.87L0.85 3.87Q0.88 3.74 0.90 3.68L0.90 3.68L0.90 3.68Q0.91 3.64 0.95 3.56L0.95 3.56L0.95 3.56Q0.99 3.47 1.04 3.39L1.04 3.39L1.04 3.39Q1.09 3.30 1.13 3.24L1.13 3.24L1.13 3.24Q1.18 3.18 1.18 3.18L1.18 3.18L1.18 3.18Q1.39 2.83 1.69 2.55L1.69 2.55L1.69 2.55Q2.00 2.28 2.35 2.06L2.35 2.06L2.35 2.06Q2.69 1.85 3.06 1.66L3.06 1.66L3.06 1.66Q3.43 1.47 3.78 1.29L3.78 1.29L3.78 1.29Q4.10 1.12 4.41 0.94L4.41 0.94L4.41 0.94Q4.72 0.76 5.10 0.71L5.10 0.71L5.10 0.71Q5.26 0.70 5.43 0.73L5.43 0.73L5.43 0.73Q5.60 0.76 5.77 0.80L5.77 0.80L5.77 0.80Q5.85 0.81 5.94 0.82L5.94 0.82L5.94 0.82Q6.03 0.83 6.13 0.84L6.13 0.84L6.13 0.84Q6.37 0.80 6.63 0.79L6.63 0.79L6.63 0.79Q6.89 0.78 7.15 0.81L7.15 0.81ZM4.51 9.34L5.14 8.97L5.14 8.97Q5.18 8.88 5.21 8.79L5.21 8.79L5.21 8.79Q5.25 8.69 5.29 8.60L5.29 8.60L5.29 8.60Q5.08 8.78 4.89 8.97L4.89 8.97L4.89 8.97Q4.70 9.16 4.51 9.34L4.51 9.34ZM6.62 6.38L6.62 6.38L6.62 6.38Q6.59 6.36 6.59 6.32L6.59 6.32L6.59 6.32Q6.58 6.29 6.55 6.26L6.55 6.26L6.55 6.26Q6.54 6.71 6.43 7.17L6.43 7.17L6.43 7.17Q6.51 7.10 6.59 7.03L6.59 7.03L6.59 7.03Q6.66 6.96 6.75 6.89L6.75 6.89L6.75 6.89Q6.73 6.65 6.62 6.38ZM1.74 3.36L1.74 3.36L1.74 3.36Q2.03 3.00 2.42 2.67L2.42 2.67L2.42 2.67Q2.45 2.63 2.47 2.59L2.47 2.59L2.47 2.59Q2.49 2.55 2.52 2.51L2.52 2.51L2.52 2.51Q2.32 2.62 2.17 2.72L2.17 2.72L2.17 2.72Q2.02 2.83 1.92 2.90L1.92 2.90L1.92 2.90Q1.82 3.00 1.74 3.36ZM1.61 4.69L1.61 4.69L1.61 4.69Q1.64 4.83 1.69 4.90L1.69 4.90L1.82 4.31L1.82 4.31Q1.69 4.49 1.61 4.69ZM8.75 7.81L8.75 7.81L8.75 7.81Q8.68 7.25 8.72 6.72L8.72 6.72L8.68 6.76L8.68 6.76Q8.68 6.52 8.69 6.32L8.69 6.32L8.69 6.32Q8.69 6.12 8.74 5.94L8.74 5.94L8.74 5.94Q8.78 5.77 8.88 5.61L8.88 5.61L8.88 5.61Q8.97 5.45 9.17 5.28L9.17 5.28L9.17 5.28Q9.24 5.22 9.33 5.15L9.33 5.15L9.33 5.15Q9.42 5.08 9.53 5.04L9.53 5.04L9.86 4.73L9.86 4.73Q9.88 4.82 9.91 4.91L9.91 4.91L9.91 4.91Q9.93 5.00 9.94 5.08L9.94 5.08L9.94 5.08Q10.08 4.97 10.19 4.93L10.19 4.93L10.19 4.93Q10.30 4.90 10.33 5.03L10.33 5.03L10.33 5.03Q10.32 5.14 10.31 5.24L10.31 5.24L10.31 5.24Q10.30 5.35 10.30 5.46L10.30 5.46L10.30 5.46Q10.29 6.02 10.28 6.58L10.28 6.58L10.28 6.58Q10.28 7.14 10.29 7.70L10.29 7.70L10.29 7.70Q10.33 8.25 10.41 8.79L10.41 8.79L10.41 8.79Q10.49 9.34 10.61 9.91L10.61 9.91L10.61 9.91Q10.63 9.91 10.65 9.88L10.65 9.88L10.65 9.88Q10.65 9.91 10.65 9.95L10.65 9.95L10.65 9.95Q10.64 9.98 10.64 10.01L10.64 10.01L10.64 10.01Q10.61 10.09 10.51 10.25L10.51 10.25L10.51 10.25Q10.40 10.40 10.26 10.55L10.26 10.55L10.26 10.55Q10.12 10.70 9.98 10.79L9.98 10.79L9.98 10.79Q9.84 10.88 9.74 10.84L9.74 10.84L9.74 10.84Q9.63 10.93 9.52 10.98L9.52 10.98L9.52 10.98Q9.41 11.02 9.34 10.95L9.34 10.95L9.34 10.95Q9.32 10.91 9.32 10.87L9.32 10.87L9.32 10.87Q9.31 10.84 9.30 10.79L9.30 10.79L9.30 10.79Q9.09 10.93 8.99 10.84L8.99 10.84L8.99 10.84Q8.97 10.77 8.97 10.68L8.97 10.68L8.97 10.68Q8.97 10.61 8.96 10.53L8.96 10.53L8.96 10.53Q8.92 10.43 8.88 10.25L8.88 10.25L8.88 10.25Q8.85 10.07 8.83 9.86L8.83 9.86L8.83 9.86Q8.82 9.66 8.81 9.48L8.81 9.48L8.81 9.48Q8.79 9.30 8.79 9.21L8.79 9.21L8.79 9.21Q8.78 9.02 8.78 8.83L8.78 8.83L8.78 8.83Q8.78 8.65 8.78 8.46L8.78 8.46L8.78 8.46Q8.76 8.30 8.76 8.13L8.76 8.13L8.76 8.13Q8.75 7.97 8.75 7.81ZM9.06 2.88L9.13 2.83L9.13 2.83Q9.14 2.80 9.14 2.77L9.14 2.77L9.14 2.77Q9.14 2.73 9.16 2.70L9.16 2.70L9.16 2.70Q9.27 2.45 9.49 2.21L9.49 2.21L9.49 2.21Q9.72 1.97 10.00 1.90L10.00 1.90L10.02 1.90L10.02 1.90Q10.09 1.92 10.11 1.99L10.11 1.99L10.11 2.17L10.11 2.17Q10.22 2.09 10.30 2.07L10.30 2.07L10.30 2.07Q10.37 2.06 10.40 2.17L10.40 2.17L10.40 2.17Q10.43 2.39 10.43 2.59L10.43 2.59L10.43 2.59Q10.43 2.79 10.50 2.80L10.50 2.80L10.26 3.08L10.26 3.08Q10.23 3.28 10.18 3.46L10.18 3.46L10.18 3.46Q10.12 3.65 10.01 3.81L10.01 3.81L10.01 3.81Q9.98 3.85 9.94 3.91L9.94 3.91L9.94 3.91Q9.90 3.98 9.83 4.05L9.83 4.05L9.83 4.05Q9.81 4.06 9.81 4.07L9.81 4.07L9.81 4.09L9.80 4.10L9.80 4.10Q9.80 4.12 9.79 4.12L9.79 4.12L9.79 4.12Q9.79 4.12 9.79 4.13L9.79 4.13L9.79 4.13Q9.74 4.19 9.63 4.33L9.63 4.33L9.63 4.33Q9.52 4.48 9.39 4.62L9.39 4.62L9.39 4.62Q9.25 4.76 9.11 4.83L9.11 4.83L9.11 4.83Q8.97 4.90 8.89 4.82L8.89 4.82L8.89 4.82Q8.88 4.34 8.88 3.84L8.88 3.84L8.88 3.84Q8.88 3.33 9.06 2.88L9.06 2.88ZM11.90 6.82L11.90 6.82L11.90 6.82Q12.10 6.48 12.36 6.17L12.36 6.17L12.36 6.17Q12.61 5.87 12.92 5.62L12.92 5.62L12.92 5.62Q13.22 5.38 13.55 5.21L13.55 5.21L13.55 5.21Q13.89 5.05 14.22 5.00L14.22 5.00L14.22 5.00Q14.62 4.73 15.06 4.55L15.06 4.55L15.06 4.55Q15.50 4.37 15.81 4.52L15.81 4.52L15.81 4.52Q16.20 4.75 16.42 5.05L16.42 5.05L16.42 5.05Q16.58 5.10 16.70 5.18L16.70 5.18L16.70 5.18Q16.74 5.22 16.79 5.26L16.79 5.26L16.79 5.26Q16.83 5.31 16.87 5.36L16.87 5.36L16.87 5.36Q17.02 5.22 17.15 5.17L17.15 5.17L17.15 5.17Q17.28 5.11 17.30 5.25L17.30 5.25L17.30 5.25Q17.36 5.66 17.37 6.05L17.37 6.05L17.37 6.05Q17.39 6.45 17.37 6.86L17.37 6.86L17.37 6.86Q17.39 6.92 17.40 6.96L17.40 6.96L17.40 6.96Q17.40 7 17.40 7.04L17.40 7.04L17.40 7.04Q17.40 7.31 17.44 7.60L17.44 7.60L17.44 7.60Q17.47 7.90 17.35 8.12L17.35 8.12L17.35 8.12Q17.35 8.19 17.34 8.27L17.34 8.27L17.34 8.27Q17.33 8.34 17.33 8.41L17.33 8.41L17.33 8.41Q17.40 8.95 17.42 9.39L17.42 9.39L17.42 9.39Q17.44 9.53 17.47 9.67L17.47 9.67L17.47 9.67Q17.49 9.80 17.50 9.93L17.50 9.93L17.50 9.93Q17.51 10.01 17.57 10.08L17.57 10.08L17.51 10.14L17.51 10.14Q17.51 10.39 17.46 10.62L17.46 10.62L17.46 10.62Q17.40 10.85 17.23 11.06L17.23 11.06L17.23 11.06Q17.19 11.10 17.10 11.19L17.10 11.19L17.10 11.19Q17.01 11.28 16.91 11.37L16.91 11.37L16.91 11.37Q16.80 11.45 16.70 11.49L16.70 11.49L16.70 11.49Q16.60 11.52 16.53 11.45L16.53 11.45L16.53 11.45Q16.52 11.44 16.52 11.42L16.52 11.42L16.52 11.42Q16.52 11.42 16.51 11.41L16.51 11.41L16.51 11.41Q16.49 11.41 16.48 11.42L16.48 11.42L16.44 11.42L16.44 11.42Q16.34 11.42 16.31 11.40L16.31 11.40L16.31 11.40Q16.24 11.19 16.24 10.91L16.24 10.91L16.24 10.91Q16.24 10.64 16.21 10.44L16.21 10.44L16.21 10.44Q16.18 10.23 16.16 10.02L16.16 10.02L16.16 10.02Q16.14 9.81 16.11 9.59L16.11 9.59L16.11 9.59Q15.75 9.83 15.32 10.00L15.32 10.00L15.32 10.00Q14.88 10.16 14.39 10.30L14.39 10.30L14.39 10.30Q14.31 10.33 14.23 10.35L14.23 10.35L14.23 10.35Q14.15 10.37 14.07 10.40L14.07 10.40L14.07 10.40Q13.86 10.51 13.64 10.61L13.64 10.61L13.64 10.61Q13.43 10.70 13.21 10.74L13.21 10.74L13.21 10.74Q12.99 10.78 12.78 10.75L12.78 10.75L12.78 10.75Q12.57 10.72 12.36 10.57L12.36 10.57L12.36 10.57Q11.98 10.30 11.68 9.93L11.68 9.93L11.68 9.93Q11.37 9.56 11.21 9.13L11.21 9.13L11.21 9.13Q11.16 8.99 11.17 8.82L11.17 8.82L11.17 8.82Q11.19 8.65 11.24 8.47L11.24 8.47L11.24 8.47Q11.16 8.13 11.21 7.92L11.21 7.92L11.21 7.92Q11.30 7.62 11.48 7.34L11.48 7.34L11.48 7.34Q11.66 7.07 11.90 6.82ZM13.43 9.21L13.43 9.21L13.43 9.21Q13.59 9.24 13.92 9.21L13.92 9.21L13.92 9.21Q14.24 9.17 14.62 9.07L14.62 9.07L14.62 9.07Q14.99 8.97 15.37 8.82L15.37 8.82L15.37 8.82Q15.75 8.67 16.02 8.47L16.02 8.47L16.02 8.47Q15.99 8.15 15.97 7.81L15.97 7.81L15.97 7.81Q15.95 7.48 15.92 7.14L15.92 7.14L15.92 7.14Q15.90 7.03 15.90 6.92L15.90 6.92L15.90 6.92Q15.90 6.79 15.89 6.68L15.89 6.68L15.83 6.72L15.83 6.72Q15.82 6.65 15.82 6.57L15.82 6.57L15.82 6.57Q15.82 6.48 15.82 6.41L15.82 6.41L15.82 6.41Q15.79 6.34 15.76 6.28L15.76 6.28L15.76 6.28Q15.72 6.22 15.69 6.15L15.69 6.15L15.57 6.26L15.57 6.26Q15.53 6.19 15.53 6.10L15.53 6.10L15.53 6.10Q15.53 6.01 15.50 5.94L15.50 5.94L15.50 5.94Q15.25 5.85 15.02 5.80L15.02 5.80L15.02 5.80Q14.80 5.75 14.59 5.74L14.59 5.74L14.59 5.74Q14.39 5.74 14.20 5.77L14.20 5.77L14.20 5.77Q14.01 5.80 13.82 5.84L13.82 5.84L13.82 5.84Q13.26 6.06 12.71 6.82L12.71 6.82L12.71 6.82Q12.52 7.06 12.33 7.39L12.33 7.39L12.33 7.39Q12.31 7.81 12.42 8.22L12.42 8.22L12.42 8.22Q12.50 8.34 12.61 8.51L12.61 8.51L12.61 8.51Q12.71 8.68 12.84 8.83L12.84 8.83L12.84 8.83Q12.96 8.97 13.11 9.09L13.11 9.09L13.11 9.09Q13.26 9.20 13.43 9.21ZM18.24 5.24L19.15 4.54L19.15 4.54Q19.14 4.56 19.14 4.61L19.14 4.61L19.14 4.61Q19.14 4.63 19.12 4.66L19.12 4.66L19.12 4.66Q19.25 4.52 19.40 4.43L19.40 4.43L19.40 4.43Q19.56 4.34 19.71 4.37L19.71 4.37L19.71 4.37Q19.80 4.45 19.79 4.62L19.79 4.62L19.79 4.62Q19.78 4.79 19.74 4.99L19.74 4.99L19.74 4.99Q19.70 5.19 19.64 5.39L19.64 5.39L19.64 5.39Q19.59 5.59 19.56 5.73L19.56 5.73L19.56 5.73Q19.57 5.70 19.63 5.64L19.63 5.64L19.63 5.64Q19.80 5.45 19.96 5.28L19.96 5.28L19.96 5.28Q20.12 5.11 20.31 4.96L20.31 4.96L20.31 4.96Q20.93 4.51 21.29 4.47L21.29 4.47L21.29 4.47Q21.64 4.42 21.84 4.75L21.84 4.75L21.84 4.75Q22.08 4.69 22.25 4.68L22.25 4.68L22.25 4.68Q22.43 4.66 22.48 4.73L22.48 4.73L22.48 4.73Q22.74 5.05 22.85 5.49L22.85 5.49L22.85 5.49Q23.17 5.32 23.56 5.14L23.56 5.14L23.56 5.14Q23.95 4.96 24.37 4.83L24.37 4.83L24.37 4.83Q24.79 4.70 25.21 4.68L25.21 4.68L25.21 4.68Q25.62 4.66 25.98 4.83L25.98 4.83L25.98 4.86L25.98 4.86Q26.05 4.89 26.01 5.07L26.01 5.07L26.01 5.07Q25.87 5.50 25.85 5.96L25.85 5.96L25.85 5.96Q25.83 6.41 25.85 6.87L25.85 6.87L25.85 6.87Q25.87 7.32 25.89 7.78L25.89 7.78L25.89 7.78Q25.90 8.25 25.83 8.69L25.83 8.69L25.83 8.69Q25.80 8.86 25.80 8.97L25.80 8.97L25.80 8.97Q25.79 9.07 25.77 9.15L25.77 9.15L25.77 9.15Q25.75 9.23 25.71 9.30L25.71 9.30L25.71 9.30Q25.68 9.38 25.59 9.49L25.59 9.49L25.59 9.49Q25.55 9.56 25.42 9.68L25.42 9.68L25.42 9.68Q25.28 9.80 25.17 9.90L25.17 9.90L25.17 9.88L25.17 9.90L25.17 9.90Q25.17 9.91 25.16 9.92L25.16 9.92L25.16 9.92Q25.16 9.93 25.16 9.94L25.16 9.94L25.16 9.94Q25.09 10.00 25.06 10.00L25.06 10.00L25.06 10.00Q25.13 9.94 25.16 9.90L25.16 9.90L25.06 10.00L25.06 10.00Q24.99 10.07 24.90 10.15L24.90 10.15L24.90 10.15Q24.81 10.23 24.74 10.29L24.74 10.29L24.74 10.29Q24.67 10.35 24.65 10.37L24.65 10.37L24.65 10.37Q24.63 10.39 24.70 10.35L24.70 10.35L24.70 10.35Q24.63 10.42 24.51 10.47L24.51 10.47L24.51 10.47Q24.39 10.53 24.32 10.46L24.32 10.46L24.32 10.46Q24.32 10.32 24.32 9.95L24.32 9.95L24.32 9.95Q24.33 9.59 24.37 9.12L24.37 9.12L24.37 9.12Q24.40 8.65 24.44 8.13L24.44 8.13L24.44 8.13Q24.49 7.60 24.55 7.13L24.55 7.13L24.55 7.13Q24.61 6.65 24.70 6.28L24.70 6.28L24.70 6.28Q24.78 5.91 24.86 5.74L24.86 5.74L24.81 5.74L24.81 5.74Q24.50 5.77 24.21 5.85L24.21 5.85L24.21 5.85Q23.91 5.94 23.63 6.01L23.63 6.01L23.63 6.01Q23.53 6.03 23.34 6.10L23.34 6.10L23.34 6.10Q23.14 6.16 22.96 6.23L22.96 6.23L22.96 6.23Q22.99 6.62 22.97 7.04L22.97 7.04L22.97 7.04Q22.96 7.45 22.92 7.86L22.92 7.86L22.92 7.86Q22.88 8.27 22.84 8.65L22.84 8.65L22.84 8.65Q22.81 9.03 22.79 9.35L22.79 9.35L22.86 9.30L22.86 9.30Q22.86 9.66 22.59 9.95L22.59 9.95L22.59 9.95Q22.32 10.23 22.01 10.36L22.01 10.36L22.01 10.36Q21.90 10.36 21.87 10.33L21.87 10.33L21.87 10.33Q21.71 10.53 21.52 10.68L21.52 10.68L21.52 10.68Q21.32 10.82 21.21 10.72L21.21 10.72L21.21 10.72Q21.14 10.16 21.15 9.60L21.15 9.60L21.15 9.60Q21.15 9.04 21.18 8.48L21.18 8.48L21.18 8.48Q21.20 7.92 21.20 7.36L21.20 7.36L21.20 7.36Q21.21 6.79 21.14 6.23L21.14 6.23L21.14 6.23Q21.08 5.87 20.99 5.66L20.99 5.66L20.99 5.66Q20.68 5.73 20.38 5.84L20.38 5.84L20.38 5.84Q20.09 5.95 19.89 6.05L19.89 6.05L19.89 6.05Q19.78 6.20 19.67 6.35L19.67 6.35L19.67 6.35Q19.56 6.50 19.45 6.64L19.45 6.64L19.45 6.64Q19.38 7.48 19.39 8.37L19.39 8.37L19.39 8.37Q19.40 9.27 19.56 10.04L19.56 10.04L19.56 10.04Q19.57 10.02 19.59 10.02L19.59 10.02L19.59 10.02Q19.60 10.01 19.61 10.00L19.61 10.00L19.61 10.00Q19.61 10.05 19.61 10.10L19.61 10.10L19.61 10.10Q19.60 10.15 19.60 10.19L19.60 10.19L19.60 10.19Q19.57 10.28 19.46 10.45L19.46 10.45L19.46 10.45Q19.35 10.63 19.20 10.77L19.20 10.77L19.20 10.77Q19.05 10.92 18.91 11.00L18.91 11.00L18.91 11.00Q18.76 11.09 18.68 11.00L18.68 11.00L18.68 11.00Q18.63 10.86 18.61 10.71L18.61 10.71L18.61 10.71Q18.59 10.56 18.56 10.40L18.56 10.40L18.56 10.40Q18.42 10.46 18.34 10.39L18.34 10.39L18.34 10.39Q18.31 10.02 18.31 9.65L18.31 9.65L18.31 9.65Q18.31 9.27 18.28 8.89L18.28 8.89L18.28 8.89Q18.23 7.97 18.15 7.07L18.15 7.07L18.15 7.07Q18.07 6.17 18.24 5.24L18.24 5.24ZM22.85 5.50L22.85 5.50L22.85 5.50Q22.83 5.60 22.86 5.61L22.86 5.61L22.86 5.61Q22.88 5.61 22.90 5.59L22.90 5.59L22.90 5.59Q22.92 5.56 22.92 5.53L22.92 5.53L22.92 5.53Q22.92 5.49 22.85 5.50ZM23.03 5.43L23.02 5.45L23.02 5.45Q23.03 5.45 23.04 5.44L23.04 5.44L23.04 5.44Q23.04 5.43 23.03 5.43L23.03 5.43ZM30.88 8.79L31.15 8.61L31.15 8.61Q31.14 8.60 31.05 8.48L31.05 8.48L31.05 8.48Q30.95 8.36 30.95 8.34L30.95 8.34L30.95 8.34Q30.65 8.27 30.32 8.21L30.32 8.21L30.32 8.21Q30.00 8.15 29.74 8.09L29.74 8.09L29.74 8.09Q29.47 8.02 29.30 7.98L29.30 7.98L29.30 7.98Q29.12 7.94 29.09 7.92L29.09 7.92L29.09 7.92Q29.02 7.87 29.04 7.78L29.04 7.78L29.04 7.78Q29.06 7.70 29.13 7.60L29.13 7.60L29.13 7.60Q28.94 7.59 28.74 7.57L28.74 7.57L28.74 7.57Q28.55 7.56 28.35 7.53L28.35 7.53L28.34 7.56L28.34 7.56Q28.28 7.55 28.24 7.54L28.24 7.54L28.24 7.54Q28.20 7.53 28.14 7.52L28.14 7.52L28.14 7.52Q27.99 7.50 27.84 7.49L27.84 7.49L27.84 7.49Q27.69 7.48 27.54 7.45L27.54 7.45L27.54 7.45Q27.45 7.38 27.51 7.25L27.51 7.25L27.51 7.25Q27.57 7.13 27.69 7L27.69 7L27.69 7Q27.59 6.99 27.51 6.98L27.51 6.98L27.51 6.98Q27.43 6.97 27.34 6.99L27.34 6.99L27.34 6.99Q27.16 7.03 26.94 7.03L26.94 7.03L26.94 7.03Q26.91 7.03 26.87 7.01L26.87 7.01L26.87 7.01Q26.84 6.99 26.85 7L26.85 7L26.85 7Q26.78 6.93 26.81 6.87L26.81 6.87L26.81 6.87Q26.84 6.80 26.87 6.73L26.87 6.73L26.87 6.73Q26.98 6.51 27.13 6.36L27.13 6.36L27.13 6.36Q27.29 6.22 27.48 6.10L27.48 6.10L27.48 6.10Q27.44 6.03 27.45 5.98L27.45 5.98L27.24 6.02L27.24 6.02Q27.09 6.05 27.10 5.96L27.10 5.96L27.10 5.96Q27.12 5.88 27.17 5.77L27.17 5.77L27.17 5.77Q27.47 5.26 27.99 4.96L27.99 4.96L27.99 4.96Q28.52 4.66 29.14 4.50L29.14 4.50L29.14 4.50Q29.76 4.34 30.40 4.30L30.40 4.30L30.40 4.30Q31.04 4.27 31.57 4.31L31.57 4.31L31.57 4.31Q31.77 4.33 31.93 4.40L31.93 4.40L31.93 4.40Q32.09 4.40 32.22 4.42L32.22 4.42L32.22 4.42Q32.35 4.44 32.45 4.49L32.45 4.49L32.45 4.49Q32.61 4.51 32.75 4.53L32.75 4.53L32.75 4.53Q32.90 4.55 33.01 4.62L33.01 4.62L33.01 4.62Q33.04 4.73 32.98 4.84L32.98 4.84L32.98 4.84Q32.93 4.94 32.84 5.04L32.84 5.04L32.84 5.04Q32.76 5.14 32.67 5.21L32.67 5.21L32.67 5.21Q32.58 5.29 32.51 5.36L32.51 5.36L32.51 5.36Q32.28 5.52 32.04 5.57L32.04 5.57L32.04 5.57Q31.79 5.63 31.54 5.64L31.54 5.64L31.37 5.80L31.37 5.80Q31.33 5.74 31.28 5.63L31.28 5.63L31.28 5.63Q31.04 5.61 30.81 5.59L30.81 5.59L30.81 5.59Q30.58 5.57 30.35 5.56L30.35 5.56L30.35 5.56Q30.04 5.61 29.76 5.68L29.76 5.68L29.76 5.68Q29.76 5.77 29.77 5.84L29.77 5.84L29.77 5.84Q29.78 5.92 29.79 6.01L29.79 6.01L29.79 6.01Q30.11 6.08 30.42 6.15L30.42 6.15L30.42 6.15Q30.73 6.23 31.00 6.29L31.00 6.29L31.00 6.29Q31.33 6.40 31.65 6.46L31.65 6.46L31.65 6.46Q31.96 6.52 32.23 6.59L32.23 6.59L32.23 6.59Q32.49 6.66 32.70 6.75L32.70 6.75L32.70 6.75Q32.90 6.85 33.03 7.01L33.03 7.01L33.03 7.01Q33.28 7.25 33.34 7.62L33.34 7.62L33.34 7.62Q33.40 7.98 33.29 8.32L33.29 8.32L33.29 8.32Q33.40 8.39 33.28 8.56L33.28 8.56L33.28 8.56Q33.15 8.74 32.96 8.89L32.96 8.89L32.96 8.89Q32.77 9.13 32.54 9.30L32.54 9.30L32.54 9.30Q32.31 9.46 32.03 9.59L32.03 9.59L32.03 9.59Q31.53 9.94 30.88 10.18L30.88 10.18L30.88 10.18Q30.39 10.40 29.89 10.56L29.89 10.56L29.89 10.56Q29.25 10.81 28.64 10.95L28.64 10.95L28.64 10.95Q28.04 11.09 27.68 10.93L27.68 10.93L27.68 10.93Q27.62 10.88 27.65 10.81L27.65 10.81L27.65 10.81Q27.69 10.64 27.75 10.56L27.75 10.56L27.75 10.56Q27.51 10.63 27.27 10.70L27.27 10.70L27.27 10.70Q27.03 10.78 26.87 10.81L26.87 10.81L26.87 10.81Q26.80 10.85 26.80 10.82L26.80 10.82L26.80 10.82Q26.75 10.84 26.71 10.84L26.71 10.84L26.71 10.84Q26.68 10.84 26.66 10.84L26.66 10.84L26.66 10.84Q26.60 10.78 26.62 10.70L26.62 10.70L26.62 10.70Q26.64 10.63 26.69 10.54L26.69 10.54L26.69 10.54Q26.74 10.46 26.80 10.39L26.80 10.39L26.80 10.39Q26.87 10.32 26.91 10.28L26.91 10.28L27.20 10.02L27.20 10.02Q27.08 9.94 27.17 9.72L27.17 9.72L27.17 9.72Q27.27 9.51 27.48 9.30L27.48 9.30L27.48 9.30Q27.68 9.10 27.94 8.98L27.94 8.98L27.94 8.98Q28.20 8.86 28.41 8.99L28.41 8.99L28.41 8.99Q28.35 9.04 28.30 9.09L28.30 9.09L28.30 9.09Q28.25 9.14 28.21 9.20L28.21 9.20L28.21 9.20Q28.32 9.24 28.46 9.24L28.46 9.24L28.46 9.24Q28.62 9.24 28.71 9.24L28.71 9.24L28.71 9.24Q28.97 9.25 29.23 9.25L29.23 9.25L29.23 9.25Q29.48 9.24 29.74 9.23L29.74 9.23L29.74 9.23Q29.88 9.16 30.02 9.16L30.02 9.16L30.02 9.16Q30.16 9.16 30.30 9.13L30.30 9.13L30.30 9.13Q30.44 9.11 30.58 9.04L30.58 9.04L30.58 9.04Q30.73 8.97 30.88 8.79L30.88 8.79ZM34.17 7.81L34.17 7.81L34.17 7.81Q34.10 7.25 34.15 6.72L34.15 6.72L34.10 6.76L34.10 6.76Q34.10 6.52 34.11 6.32L34.11 6.32L34.11 6.32Q34.12 6.12 34.16 5.94L34.16 5.94L34.16 5.94Q34.20 5.77 34.30 5.61L34.30 5.61L34.30 5.61Q34.40 5.45 34.59 5.28L34.59 5.28L34.59 5.28Q34.66 5.22 34.75 5.15L34.75 5.15L34.75 5.15Q34.85 5.08 34.96 5.04L34.96 5.04L35.28 4.73L35.28 4.73Q35.31 4.82 35.33 4.91L35.33 4.91L35.33 4.91Q35.35 5.00 35.36 5.08L35.36 5.08L35.36 5.08Q35.50 4.97 35.62 4.93L35.62 4.93L35.62 4.93Q35.73 4.90 35.76 5.03L35.76 5.03L35.76 5.03Q35.74 5.14 35.73 5.24L35.73 5.24L35.73 5.24Q35.73 5.35 35.73 5.46L35.73 5.46L35.73 5.46Q35.71 6.02 35.71 6.58L35.71 6.58L35.71 6.58Q35.70 7.14 35.71 7.70L35.71 7.70L35.71 7.70Q35.76 8.25 35.83 8.79L35.83 8.79L35.83 8.79Q35.91 9.34 36.04 9.91L36.04 9.91L36.04 9.91Q36.05 9.91 36.08 9.88L36.08 9.88L36.08 9.88Q36.08 9.91 36.07 9.95L36.07 9.95L36.07 9.95Q36.06 9.98 36.06 10.01L36.06 10.01L36.06 10.01Q36.04 10.09 35.93 10.25L35.93 10.25L35.93 10.25Q35.83 10.40 35.69 10.55L35.69 10.55L35.69 10.55Q35.55 10.70 35.41 10.79L35.41 10.79L35.41 10.79Q35.27 10.88 35.17 10.84L35.17 10.84L35.17 10.84Q35.06 10.93 34.94 10.98L34.94 10.98L34.94 10.98Q34.83 11.02 34.76 10.95L34.76 10.95L34.76 10.95Q34.75 10.91 34.74 10.87L34.74 10.87L34.74 10.87Q34.73 10.84 34.72 10.79L34.72 10.79L34.72 10.79Q34.51 10.93 34.41 10.84L34.41 10.84L34.41 10.84Q34.40 10.77 34.40 10.68L34.40 10.68L34.40 10.68Q34.40 10.61 34.38 10.53L34.38 10.53L34.38 10.53Q34.34 10.43 34.31 10.25L34.31 10.25L34.31 10.25Q34.27 10.07 34.26 9.86L34.26 9.86L34.26 9.86Q34.24 9.66 34.23 9.48L34.23 9.48L34.23 9.48Q34.22 9.30 34.22 9.21L34.22 9.21L34.22 9.21Q34.20 9.02 34.20 8.83L34.20 8.83L34.20 8.83Q34.20 8.65 34.20 8.46L34.20 8.46L34.20 8.46Q34.19 8.30 34.18 8.13L34.18 8.13L34.18 8.13Q34.17 7.97 34.17 7.81ZM34.48 2.88L34.55 2.83L34.55 2.83Q34.57 2.80 34.57 2.77L34.57 2.77L34.57 2.77Q34.57 2.73 34.58 2.70L34.58 2.70L34.58 2.70Q34.69 2.45 34.92 2.21L34.92 2.21L34.92 2.21Q35.14 1.97 35.42 1.90L35.42 1.90L35.45 1.90L35.45 1.90Q35.52 1.92 35.53 1.99L35.53 1.99L35.53 2.17L35.53 2.17Q35.64 2.09 35.72 2.07L35.72 2.07L35.72 2.07Q35.80 2.06 35.83 2.17L35.83 2.17L35.83 2.17Q35.85 2.39 35.85 2.59L35.85 2.59L35.85 2.59Q35.85 2.79 35.92 2.80L35.92 2.80L35.69 3.08L35.69 3.08Q35.66 3.28 35.60 3.46L35.60 3.46L35.60 3.46Q35.55 3.65 35.43 3.81L35.43 3.81L35.43 3.81Q35.41 3.85 35.36 3.91L35.36 3.91L35.36 3.91Q35.32 3.98 35.25 4.05L35.25 4.05L35.25 4.05Q35.24 4.06 35.24 4.07L35.24 4.07L35.24 4.09L35.22 4.10L35.22 4.10Q35.22 4.12 35.21 4.12L35.21 4.12L35.21 4.12Q35.21 4.12 35.21 4.13L35.21 4.13L35.21 4.13Q35.17 4.19 35.06 4.33L35.06 4.33L35.06 4.33Q34.94 4.48 34.81 4.62L34.81 4.62L34.81 4.62Q34.68 4.76 34.54 4.83L34.54 4.83L34.54 4.83Q34.40 4.90 34.31 4.82L34.31 4.82L34.31 4.82Q34.30 4.34 34.30 3.84L34.30 3.84L34.30 3.84Q34.30 3.33 34.48 2.88L34.48 2.88ZM37.32 6.82L37.32 6.82L37.32 6.82Q37.52 6.48 37.78 6.17L37.78 6.17L37.78 6.17Q38.04 5.87 38.34 5.62L38.34 5.62L38.34 5.62Q38.64 5.38 38.98 5.21L38.98 5.21L38.98 5.21Q39.31 5.05 39.65 5.00L39.65 5.00L39.65 5.00Q40.04 4.73 40.48 4.55L40.48 4.55L40.48 4.55Q40.92 4.37 41.23 4.52L41.23 4.52L41.23 4.52Q41.62 4.75 41.85 5.05L41.85 5.05L41.85 5.05Q42 5.10 42.13 5.18L42.13 5.18L42.13 5.18Q42.17 5.22 42.21 5.26L42.21 5.26L42.21 5.26Q42.25 5.31 42.29 5.36L42.29 5.36L42.29 5.36Q42.45 5.22 42.57 5.17L42.57 5.17L42.57 5.17Q42.70 5.11 42.73 5.25L42.73 5.25L42.73 5.25Q42.78 5.66 42.80 6.05L42.80 6.05L42.80 6.05Q42.81 6.45 42.80 6.86L42.80 6.86L42.80 6.86Q42.81 6.92 42.82 6.96L42.82 6.96L42.82 6.96Q42.83 7 42.83 7.04L42.83 7.04L42.83 7.04Q42.83 7.31 42.86 7.60L42.86 7.60L42.86 7.60Q42.90 7.90 42.77 8.12L42.77 8.12L42.77 8.12Q42.77 8.19 42.76 8.27L42.76 8.27L42.76 8.27Q42.76 8.34 42.76 8.41L42.76 8.41L42.76 8.41Q42.83 8.95 42.84 9.39L42.84 9.39L42.84 9.39Q42.87 9.53 42.89 9.67L42.89 9.67L42.89 9.67Q42.91 9.80 42.92 9.93L42.92 9.93L42.92 9.93Q42.94 10.01 42.99 10.08L42.99 10.08L42.94 10.14L42.94 10.14Q42.94 10.39 42.88 10.62L42.88 10.62L42.88 10.62Q42.83 10.85 42.66 11.06L42.66 11.06L42.66 11.06Q42.62 11.10 42.52 11.19L42.52 11.19L42.52 11.19Q42.43 11.28 42.33 11.37L42.33 11.37L42.33 11.37Q42.22 11.45 42.13 11.49L42.13 11.49L42.13 11.49Q42.03 11.52 41.96 11.45L41.96 11.45L41.96 11.45Q41.94 11.44 41.94 11.42L41.94 11.42L41.94 11.42Q41.94 11.42 41.93 11.41L41.93 11.41L41.93 11.41Q41.92 11.41 41.90 11.42L41.90 11.42L41.86 11.42L41.86 11.42Q41.76 11.42 41.73 11.40L41.73 11.40L41.73 11.40Q41.66 11.19 41.66 10.91L41.66 10.91L41.66 10.91Q41.66 10.64 41.64 10.44L41.64 10.44L41.64 10.44Q41.61 10.23 41.59 10.02L41.59 10.02L41.59 10.02Q41.57 9.81 41.54 9.59L41.54 9.59L41.54 9.59Q41.17 9.83 40.74 10.00L40.74 10.00L40.74 10.00Q40.31 10.16 39.82 10.30L39.82 10.30L39.82 10.30Q39.73 10.33 39.65 10.35L39.65 10.35L39.65 10.35Q39.58 10.37 39.49 10.40L39.49 10.40L39.49 10.40Q39.28 10.51 39.07 10.61L39.07 10.61L39.07 10.61Q38.85 10.70 38.63 10.74L38.63 10.74L38.63 10.74Q38.42 10.78 38.21 10.75L38.21 10.75L38.21 10.75Q38.00 10.72 37.79 10.57L37.79 10.57L37.79 10.57Q37.41 10.30 37.10 9.93L37.10 9.93L37.10 9.93Q36.79 9.56 36.64 9.13L36.64 9.13L36.64 9.13Q36.58 8.99 36.60 8.82L36.60 8.82L36.60 8.82Q36.61 8.65 36.67 8.47L36.67 8.47L36.67 8.47Q36.58 8.13 36.64 7.92L36.64 7.92L36.64 7.92Q36.72 7.62 36.90 7.34L36.90 7.34L36.90 7.34Q37.09 7.07 37.32 6.82ZM38.85 9.21L38.85 9.21L38.85 9.21Q39.02 9.24 39.34 9.21L39.34 9.21L39.34 9.21Q39.66 9.17 40.04 9.07L40.04 9.07L40.04 9.07Q40.42 8.97 40.80 8.82L40.80 8.82L40.80 8.82Q41.17 8.67 41.44 8.47L41.44 8.47L41.44 8.47Q41.41 8.15 41.39 7.81L41.39 7.81L41.39 7.81Q41.37 7.48 41.34 7.14L41.34 7.14L41.34 7.14Q41.33 7.03 41.33 6.92L41.33 6.92L41.33 6.92Q41.33 6.79 41.31 6.68L41.31 6.68L41.26 6.72L41.26 6.72Q41.24 6.65 41.24 6.57L41.24 6.57L41.24 6.57Q41.24 6.48 41.24 6.41L41.24 6.41L41.24 6.41Q41.22 6.34 41.18 6.28L41.18 6.28L41.18 6.28Q41.15 6.22 41.12 6.15L41.12 6.15L40.99 6.26L40.99 6.26Q40.95 6.19 40.95 6.10L40.95 6.10L40.95 6.10Q40.95 6.01 40.92 5.94L40.92 5.94L40.92 5.94Q40.67 5.85 40.45 5.80L40.45 5.80L40.45 5.80Q40.22 5.75 40.01 5.74L40.01 5.74L40.01 5.74Q39.82 5.74 39.63 5.77L39.63 5.77L39.63 5.77Q39.44 5.80 39.24 5.84L39.24 5.84L39.24 5.84Q38.68 6.06 38.14 6.82L38.14 6.82L38.14 6.82Q37.94 7.06 37.76 7.39L37.76 7.39L37.76 7.39Q37.73 7.81 37.84 8.22L37.84 8.22L37.84 8.22Q37.93 8.34 38.03 8.51L38.03 8.51L38.03 8.51Q38.14 8.68 38.26 8.83L38.26 8.83L38.26 8.83Q38.39 8.97 38.53 9.09L38.53 9.09L38.53 9.09Q38.68 9.20 38.85 9.21Z"></path></g> <!----> <g data-v-5f19e91b="" id="f8c1ab63-20ed-7d38-7809-51a33e9b791d" transform="matrix(0.776566653781467,0,0,0.776566653781467,0.1462660875271169,-11.711158750490725)" stroke="none" fill="white"><path d="M53.893 81.15c-4.05-1.67-26.459-3.809-35.562-4.562a32.449 32.449 0 0 1-.641-.053 1.517 1.517 0 0 1 .266-3.02l.831.07c5.337.385 17.599.29 21.787-4.13 1.196-1.264 1.64-2.8 1.356-4.698-.39-2.606-1.633-4.613-3.801-6.134-5.812-4.079-16.409-3.395-21.744-2.721l-.012.019C7.378 57.531.706 63.342.706 70.283c0 7.783 8.385 14.276 19.037 14.882l.025.055 1.63.005 38.571-.002c-1.705-1.48-3.957-3.201-6.076-4.073z"></path><path d="M63.247 42.95l33.241-9.473c2.829-4.857 2.979-8.185-.527-8.779-3.044-.517-5.981-.89-8.828-1.15-.644-4.639-4.615-8.213-9.431-8.213-4.851 0-8.847 3.627-9.444 8.316-25.467 2.843-40.835 16.656-49.636 28.956 6.13-.542 15.464-.521 21.248 3.537 2.845 1.995 4.546 4.744 5.058 8.167.424 2.841-.301 5.273-2.155 7.231-1.646 1.738-4.081 2.915-6.795 3.704 3.447.381 6.931.805 10.003 1.248.917-.254 1.734-.571 2.417-.965a166.368 166.368 0 0 0 5.2-3.138L64.62 85.226h18.174a3.176 3.176 0 1 0 0-6.353H72.54l-8.557-13.511c13.106-9.529 24.041-20.054 29.929-28.023l-29.841 8.504a1.505 1.505 0 0 1-.824-2.893zm14.455-21.278a3.193 3.193 0 1 1 0 6.386 3.193 3.193 0 0 1 0-6.386z"></path></g></svg>